<?xml version="1.0" encoding="UTF-8" standalone="no"?>
<!-- Created with Inkscape (http://www.inkscape.org/) -->

<svg
   width="210mm"
   height="297mm"
   viewBox="0 0 210 297"
   version="1.1"
   id="svg5"
   sodipodi:docname="sunflower.svg"
   inkscape:version="1.2 (dc2aedaf03, 2022-05-15)"
   xmlns:inkscape="http://www.inkscape.org/namespaces/inkscape"
   xmlns:sodipodi="http://sodipodi.sourceforge.net/DTD/sodipodi-0.dtd"
   xmlns="http://www.w3.org/2000/svg"
   xmlns:svg="http://www.w3.org/2000/svg">
  <sodipodi:namedview
     id="namedview7"
     pagecolor="#505050"
     bordercolor="#eeeeee"
     borderopacity="1"
     inkscape:showpageshadow="0"
     inkscape:pageopacity="0"
     inkscape:pagecheckerboard="0"
     inkscape:deskcolor="#505050"
     inkscape:document-units="mm"
     showgrid="false"
     inkscape:zoom="0.37282197"
     inkscape:cx="531.08458"
     inkscape:cy="359.42088"
     inkscape:window-width="1920"
     inkscape:window-height="1017"
     inkscape:window-x="1912"
     inkscape:window-y="-8"
     inkscape:window-maximized="1"
     inkscape:current-layer="layer1" />
  <defs
     id="defs2" />
  <g
     inkscape:label="Layer 1"
     inkscape:groupmode="layer"
     id="layer1">
    <rect
       style="fill:#00a700;fill-opacity:0.980392;stroke:none;stroke-width:0.141825"
       id="rect19917"
       width="3.9032254"
       height="42.4324"
       x="111.77419"
       y="153.29031" />
    <path
       id="path19789"
       style="fill:#00a700;fill-opacity:0.980392;stroke:none;stroke-width:0.264583"
       d="m 140.90724,166.80948 c 0,0 -24.74998,0.35491 -29.00805,22.70973 l 4.1398,-3.24063 v -5.2e-4 c 0.0602,-0.1439 0.12131,-0.28692 0.18345,-0.4284 0.0621,-0.14147 0.1256,-0.28157 0.18965,-0.42064 0.0641,-0.13907 0.12889,-0.27673 0.19482,-0.41341 0.0659,-0.13669 0.13274,-0.27238 0.20051,-0.4067 0.0678,-0.13432 0.13663,-0.26748 0.20619,-0.39946 0.0695,-0.13197 0.14005,-0.26257 0.21135,-0.39222 0.0713,-0.12965 0.14352,-0.25816 0.21653,-0.38551 0.073,-0.12734 0.14651,-0.25372 0.22117,-0.37878 0.0747,-0.12507 0.15006,-0.24927 0.22635,-0.37207 0.0763,-0.12281 0.15365,-0.24428 0.23151,-0.36484 0.0778,-0.12056 0.15625,-0.23978 0.23564,-0.35812 0.0794,-0.11834 0.15994,-0.23578 0.24081,-0.35191 0.0809,-0.11614 0.16211,-0.23124 0.24443,-0.3452 0.0823,-0.11396 0.16536,-0.22668 0.24908,-0.33848 0.0837,-0.1118 0.16814,-0.22262 0.25322,-0.33228 0.0851,-0.10966 0.17095,-0.21802 0.25735,-0.32556 0.0864,-0.10755 0.1733,-0.21444 0.26096,-0.31988 0.0877,-0.10545 0.17621,-0.20979 0.2651,-0.31316 0.0889,-0.10337 0.17812,-0.20564 0.2682,-0.30696 0.0901,-0.10131 0.18112,-0.20148 0.27234,-0.30076 0.0912,-0.0993 0.1826,-0.1978 0.27492,-0.29507 0.0923,-0.0973 0.18516,-0.1936 0.27853,-0.28887 0.0934,-0.0953 0.18725,-0.18937 0.28164,-0.28267 0.0944,-0.0933 0.18938,-0.18564 0.28474,-0.27699 0.0954,-0.0913 0.19155,-0.18137 0.28783,-0.27078 0.0963,-0.0894 0.19274,-0.17812 0.28991,-0.26562 0.0972,-0.0875 0.19499,-0.1738 0.293,-0.25941 0.098,-0.0856 0.19627,-0.17051 0.29508,-0.25425 0.0988,-0.0837 0.19809,-0.16667 0.29765,-0.24856 0.0996,-0.0819 0.19945,-0.16282 0.29973,-0.24288 0.10027,-0.0801 0.20085,-0.15895 0.30179,-0.2372 0.10094,-0.0782 0.20229,-0.15556 0.30385,-0.23203 0.10157,-0.0765 0.20327,-0.15216 0.30541,-0.22685 0.10215,-0.0747 0.20479,-0.14874 0.30748,-0.2217 0.10268,-0.0729 0.20533,-0.14478 0.3085,-0.216 0.10318,-0.0712 0.20695,-0.14184 0.31058,-0.21136 0.10363,-0.0695 0.20705,-0.13835 0.31109,-0.20619 0.10404,-0.0678 0.20876,-0.13433 0.31316,-0.2005 0.20881,-0.13235 0.41785,-0.26176 0.62787,-0.38758 0.21002,-0.12581 0.42061,-0.24848 0.63149,-0.36793 0.21087,-0.11945 0.42216,-0.23557 0.63355,-0.34882 0.21139,-0.11325 0.42303,-0.22352 0.63459,-0.33073 0.21155,-0.10721 0.4232,-0.2113 0.63458,-0.31264 0.21138,-0.10134 0.4227,-0.19995 0.63356,-0.29559 0.21085,-0.0956 0.42097,-0.18844 0.63096,-0.27854 0.21,-0.0901 0.41961,-0.17728 0.62839,-0.262 0.20878,-0.0847 0.41703,-0.16698 0.62425,-0.24649 0.20722,-0.0795 0.41325,-0.15653 0.61857,-0.231 0.20532,-0.0745 0.40981,-0.14642 0.61288,-0.216 0.20307,-0.0696 0.40517,-0.13667 0.60565,-0.20154 0.20048,-0.0649 0.39932,-0.12727 0.59686,-0.18759 0.19754,-0.0603 0.39382,-0.11873 0.58808,-0.17466 0.19426,-0.0559 0.38659,-0.10952 0.57722,-0.16123 0.19064,-0.0517 0.3792,-0.10117 0.56586,-0.14883 0.18666,-0.0477 0.37112,-0.0937 0.55346,-0.13746 0.0195,-0.005 0.0384,-0.009 0.0579,-0.0134 z" />
    <path
       id="path17346"
       style="fill:#00a700;fill-opacity:0.980392;stroke:none;stroke-width:0.303698"
       inkscape:label="path17346"
       d="M 157.33562 154.91974 C 88.240228 154.70022 136.83919 169.61859 136.83919 169.61859 C 136.83919 169.61859 147.30932 204.61532 164.39513 154.98899 C 161.91573 154.94939 159.56449 154.92674 157.33562 154.91974 z M 117.67602 157.19454 L 117.67602 283.27625 L 117.67602 157.19454 z " />
    <path
       id="path17317"
       style="fill:#fae033;fill-opacity:0.980392;stroke:none;stroke-width:0.264583"
       inkscape:transform-center-x="-21.954525"
       inkscape:transform-center-y="-21.829071"
       d="M 114.2323 88.075244 C 111.92031 90.437137 110.47561 92.783574 109.65377 95.037093 C 109.62394 95.118898 109.59516 95.200482 109.56696 95.282039 C 108.27099 93.020526 106.20287 90.994076 103.02162 89.535103 C 101.39971 92.414904 100.61117 95.055258 100.40059 97.444698 C 100.39293 97.531614 100.38658 97.617862 100.38044 97.704114 C 98.543278 95.854888 96.021289 94.432399 92.570577 93.846468 C 91.719457 97.164166 91.667039 100.00173 92.133911 102.42062 C 89.880753 101.10993 87.076532 100.38919 83.591797 100.71633 C 83.628362 104.14126 84.311575 106.89554 85.388586 109.11117 C 82.873103 108.42846 79.978207 108.45818 76.697127 109.67599 C 77.618825 112.97455 78.991267 115.45811 80.604899 117.31945 C 77.998487 117.3111 75.209803 118.08916 72.35579 120.11463 C 74.099948 123.06247 76.068874 125.10605 78.109444 126.48634 C 75.589613 127.15283 73.097001 128.62598 70.864408 131.32118 C 73.312033 133.7171 75.742972 135.18141 78.071204 135.98653 C 75.80969 137.28249 73.783241 139.35061 72.324268 142.53187 C 75.308822 144.21278 78.035854 144.99803 80.493278 145.17305 C 78.644053 147.01021 77.22208 149.5322 76.636149 152.98291 C 79.953847 153.83403 82.790899 153.88645 85.209786 153.41958 C 83.899096 155.67273 83.178358 158.47695 83.505497 161.96169 C 86.930393 161.92513 89.684717 161.2419 91.900334 160.1649 C 91.217622 162.68038 91.24734 165.57528 92.465157 168.85636 C 95.76404 167.93457 98.247733 166.56191 100.10913 164.94807 C 100.10068 167.55463 100.87819 170.3435 102.9038 173.1977 C 105.85163 171.45354 107.89522 169.48461 109.2755 167.44404 C 109.942 169.96387 111.41514 172.45649 114.11035 174.68908 C 116.50626 172.24145 117.97057 169.81052 118.7757 167.48228 C 120.07166 169.7438 122.13978 171.77025 125.32103 173.22922 C 127.00194 170.24466 127.78719 167.51763 127.96222 165.06021 C 129.79937 166.90943 132.32136 168.33141 135.77207 168.91734 C 136.62319 165.59968 136.67611 162.76257 136.20926 160.3437 C 138.46235 161.65425 141.26632 162.37511 144.75085 162.04799 C 144.71429 158.62307 144.03108 155.86878 142.95406 153.65315 C 145.46955 154.33587 148.36496 154.30615 151.64604 153.08833 C 150.72425 149.78945 149.35107 147.30575 147.73724 145.44435 C 150.3438 145.45281 153.13266 144.6753 155.98686 142.64969 C 154.2427 139.70185 152.27378 137.65827 150.23321 136.27799 C 152.75304 135.61149 155.24565 134.13834 157.47824 131.44314 C 155.03062 129.04722 152.59968 127.58292 150.27145 126.77779 C 152.53296 125.48183 154.55941 123.41371 156.01838 120.23245 C 153.03383 118.55154 150.3068 117.7663 147.84937 117.59127 C 149.6986 115.75411 151.12109 113.23212 151.70702 109.78141 C 148.50556 108.96011 145.75067 108.88218 143.38815 109.2972 C 143.3024 109.31227 143.21759 109.32788 143.13287 109.34423 C 143.13388 109.34249 143.13495 109.3408 143.13597 109.33906 C 144.44459 107.08686 145.16402 104.28448 144.83715 100.80263 C 141.41223 100.8392 138.65794 101.52241 136.44232 102.59942 C 137.12503 100.08394 137.09531 97.189043 135.87749 93.907963 C 132.57893 94.829661 130.09538 96.202103 128.23403 97.815735 C 128.24239 95.209324 127.46433 92.420638 125.43885 89.566626 C 123.18695 90.899021 121.46263 92.362361 120.15856 93.888843 C 120.08992 93.969184 120.02231 94.050009 119.95599 94.130688 C 119.6907 94.453407 119.44394 94.778486 119.21443 95.105823 C 119.16441 95.177162 119.11553 95.248758 119.06715 95.32028 C 118.40066 92.800449 116.92751 90.307836 114.2323 88.075244 z M 117.05229 108.24197 C 117.79207 111.35827 119.03304 113.47318 119.03304 113.47318 C 119.03304 113.47318 120.89465 112.09883 122.94288 109.77676 C 122.91968 110.58549 122.94379 111.34127 122.99301 112.01849 C 123.0011 112.12978 123.01003 112.23863 123.01936 112.3456 C 123.1781 114.16412 123.50254 115.3418 123.50254 115.3418 C 123.50254 115.3418 125.65688 114.49591 128.23662 112.78278 C 127.31923 115.85132 127.33641 118.30337 127.33641 118.30337 C 127.33641 118.30337 129.63567 118.0439 132.57072 117.05694 C 130.8906 119.78331 130.27267 122.15637 130.27267 122.15637 C 130.27267 122.15637 132.56121 122.50043 135.65167 122.30675 C 133.32286 124.50552 132.11183 126.63826 132.11183 126.63826 C 132.11183 126.63826 134.23309 127.56285 137.26811 128.17564 C 134.44995 129.69667 132.72833 131.44314 132.72833 131.44314 C 132.72833 131.44314 134.53803 132.88557 137.31152 134.26312 C 134.19546 135.00292 132.08031 136.24388 132.08031 136.24388 C 132.08031 136.24388 133.455 138.10538 135.77724 140.15372 C 132.57583 140.06179 130.21169 140.71337 130.21169 140.71337 C 130.21169 140.71337 131.05752 142.86713 132.77019 145.44642 C 129.70193 144.52922 127.25011 144.54725 127.25011 144.54725 C 127.25011 144.54725 127.50959 146.84651 128.49655 149.78156 C 125.77018 148.10144 123.39712 147.4835 123.39712 147.4835 C 123.39712 147.4835 123.05306 149.77204 123.24674 152.8625 C 121.04796 150.53369 118.91522 149.32267 118.91522 149.32267 C 118.91522 149.32267 117.99064 151.44374 117.37785 154.47894 C 115.85682 151.66079 114.11035 149.93917 114.11035 149.93917 C 114.11035 149.93917 112.70587 151.69994 111.34514 154.41125 C 111.32686 154.44768 111.30863 154.48557 111.29036 154.52235 C 110.55058 151.40606 109.30961 149.29115 109.30961 149.29115 C 109.30961 149.29115 108.93494 149.56746 108.33706 150.0818 C 108.21748 150.18466 108.08934 150.29712 107.9531 150.41873 C 107.27191 151.02673 106.39731 151.86472 105.4809 152.89506 C 105.45399 152.92532 105.42675 152.95697 105.39977 152.98756 C 105.49161 149.78641 104.84011 147.42253 104.84011 147.42253 C 104.84011 147.42253 102.74295 148.24511 100.20887 149.91281 C 100.17513 149.93502 100.14096 149.95852 100.10707 149.98103 C 101.02427 146.91277 101.00624 144.46095 101.00624 144.46095 C 101.00624 144.46095 98.76809 144.71259 95.888721 145.66759 C 95.850151 145.68039 95.810728 145.69434 95.771932 145.70739 C 97.452062 142.98101 98.069983 140.60795 98.069983 140.60795 C 98.069983 140.60795 95.842403 140.27208 92.813973 140.44931 C 92.773421 140.45168 92.731818 140.45502 92.690983 140.45758 C 95.019792 138.2588 96.230819 136.12606 96.230819 136.12606 C 96.230819 136.12606 94.109549 135.20096 91.074028 134.58817 C 93.892408 133.06709 95.614319 131.32118 95.614319 131.32118 C 95.614319 131.32118 93.804618 129.87876 91.031136 128.5012 C 94.14743 127.76141 96.262341 126.52044 96.262341 126.52044 C 96.262341 126.52044 94.887996 124.65884 92.565926 122.6106 C 92.843009 122.61855 93.114219 122.62116 93.377763 122.61887 C 93.504181 122.61777 93.628934 122.6153 93.7519 122.61215 C 96.334181 122.54611 98.130961 122.05095 98.130961 122.05095 C 98.130961 122.05095 97.285073 119.89661 95.571944 117.31687 C 98.640493 118.23426 101.09254 118.21707 101.09254 118.21707 C 101.09254 118.21707 100.83307 115.91782 99.846102 112.98277 C 102.57247 114.66289 104.94553 115.28082 104.94553 115.28082 C 104.94553 115.28082 105.28959 112.99228 105.09591 109.90182 C 107.29469 112.23063 109.42743 113.44165 109.42743 113.44165 C 109.42743 113.44165 110.35253 111.3202 110.96532 108.28486 C 112.4864 111.10324 114.2323 112.82515 114.2323 112.82515 C 114.2323 112.82515 115.67473 111.01545 117.05229 108.24197 z " />
    <path
       id="path17320"
       style="fill:#964b00;fill-opacity:0.980392;stroke-width:0.314778"
       d="m 140.5146,131.05724 a 25.962576,25.962576 0 0 1 -25.96257,25.96257 25.962576,25.962576 0 0 1 -25.962581,-25.96257 25.962576,25.962576 0 0 1 25.962581,-25.96258 25.962576,25.962576 0 0 1 25.96257,25.96258 z" />
    <path
       style="fill:#00a700;fill-opacity:0.980392;stroke:none;stroke-width:0.299622"
       d="m 52.148982,170.51554 c 68.846368,39.23792 38.128557,0.8254 38.128557,0.8254 0,0 1.928535,-33.96793 -38.128557,-0.8254 z"
       id="path19673"
       inkscape:label="path17346"
       sodipodi:nodetypes="ccc" />
    <path
       style="fill:#00a700;fill-opacity:0.980392;stroke:none;stroke-width:0.264583"
       d="m 116.56451,157.54838 v 76.29033"
       id="path19855" />
    <path
       id="path19960"
       style="fill:#00a700;fill-opacity:0.980392;stroke:none;stroke-width:0.329879"
       d="m 91.261443,167.8424 c -3.788804,0.0352 -6.390307,0.90175 -6.390307,0.90175 l 4.347538,2.75694 c 0.08094,-0.007 0.158767,-0.0153 0.248047,-0.0217 0.141165,-0.0101 0.29251,-0.019 0.453719,-0.0253 0.0806,-0.003 0.163652,-0.006 0.24908,-0.008 0.08543,-0.002 0.173422,-0.003 0.26355,-0.004 0.09013,-5.3e-4 0.1828,-2e-5 0.277502,0.001 0.0947,10e-4 0.191269,0.003 0.290422,0.006 0.09915,0.003 0.200895,0.007 0.304374,0.0119 0.103479,0.005 0.209096,0.0105 0.316777,0.0176 0.10768,0.007 0.217422,0.0153 0.329178,0.0248 0.111758,0.009 0.225355,0.0204 0.341065,0.0325 0.11571,0.0121 0.233412,0.0255 0.35295,0.0403 0.119538,0.0149 0.241077,0.0313 0.364319,0.0491 0.123241,0.0178 0.247833,0.0369 0.374654,0.0579 0.126821,0.021 0.255748,0.0438 0.386023,0.0682 0.130275,0.0244 0.262237,0.0505 0.395841,0.0785 0.133606,0.0279 0.26885,0.0577 0.40566,0.0894 0.136811,0.0317 0.27507,0.0652 0.414962,0.10077 0.139892,0.0356 0.281415,0.0729 0.424264,0.11266 0.142847,0.0397 0.286851,0.082 0.432531,0.12609 0.145681,0.0441 0.292928,0.0904 0.441317,0.13901 0.148389,0.0486 0.298096,0.0991 0.449068,0.15244 0.150972,0.0533 0.303389,0.10918 0.45682,0.16743 0.15343,0.0582 0.307773,0.11907 0.463538,0.18242 0.155763,0.0634 0.312797,0.12926 0.470772,0.19792 0.157974,0.0686 0.316909,0.14031 0.476969,0.21446 0.16006,0.0742 0.32116,0.15114 0.48318,0.23099 0.16202,0.0798 0.325,0.16233 0.48886,0.24805 0.16386,0.0857 0.32846,0.17432 0.494034,0.26613 0.16557,0.0918 0.33205,0.18667 0.4992,0.28474 0.16715,0.0981 0.33522,0.19932 0.50384,0.30386 0.16862,0.10454 0.33802,0.21281 0.50798,0.32401 0.16996,0.11121 0.34042,0.22559 0.5116,0.34365 0.17117,0.11806 0.34295,0.23972 0.51521,0.36483 0.17226,0.1251 0.3451,0.25368 0.51831,0.38603 0.17323,0.13235 0.34684,0.26846 0.5209,0.40824 0.087,0.0699 0.17427,0.1406 0.26149,0.21239 0.0872,0.0718 0.1746,0.14436 0.262,0.21807 0.0874,0.0737 0.17497,0.14863 0.26251,0.22428 0.0876,0.0757 0.17483,0.15234 0.26252,0.22996 0.0877,0.0776 0.17574,0.15604 0.26355,0.23564 0.0878,0.0796 0.17563,0.16022 0.26355,0.24185 0.0879,0.0816 0.17553,0.16438 0.26355,0.24805 0.088,0.0837 0.17649,0.16851 0.26458,0.25425 0.0881,0.0857 0.17591,0.17211 0.26407,0.25993 0.0881,0.0878 0.17638,0.17671 0.26458,0.26665 0.0882,0.0899 0.17635,0.18129 0.26458,0.27337 0.0882,0.0921 0.17634,0.18481 0.26459,0.27905 0.0883,0.0942 0.17685,0.18986 0.2651,0.28629 0.0883,0.0964 0.17635,0.19385 0.26458,0.29249 0.0882,0.0986 0.17638,0.19832 0.26458,0.2992 0.0882,0.10087 0.17643,0.2028 0.26459,0.30593 0.0881,0.10313 0.17649,0.20774 0.26458,0.31316 0.0881,0.10541 0.17605,0.21164 0.26407,0.31936 0.088,0.10772 0.17614,0.21654 0.26406,0.32659 0.0879,0.11006 0.17574,0.22142 0.26355,0.33383 0.0878,0.11241 0.17535,0.22628 0.26304,0.34107 0.0877,0.11479 0.17548,0.23059 0.26303,0.34778 0.0876,0.1172 0.17512,0.23538 0.26252,0.35501 0.0874,0.11962 0.17426,0.24069 0.26148,0.36277 0.0872,0.12207 0.17445,0.24545 0.26148,0.37001 0.087,0.12456 0.17414,0.25017 0.26097,0.37723 0.0868,0.12705 0.17332,0.2554 0.25993,0.38499 0.0866,0.12958 0.17355,0.2606 0.25993,0.39274 0.0864,0.13213 0.17225,0.26528 0.25838,0.39998 0.0861,0.13471 0.17252,0.27093 0.25839,0.40824 0.006,0.009 0.011,0.018 0.0165,0.0269 l 2.75229,1.74511 v -3.39721 C 107.96747,170.22073 97.830559,167.78136 91.261443,167.8424 Z" />
  </g>
</svg>
